<?xml version="1.0" standalone="no"?>
<!DOCTYPE svg PUBLIC "-//W3C//DTD SVG 20010904//EN"
 "http://www.w3.org/TR/2001/REC-SVG-20010904/DTD/svg10.dtd">
<svg version="1.0" xmlns="http://www.w3.org/2000/svg"
 width="1000.000000pt" height="1000.000000pt" viewBox="0 0 1000.000000 1000.000000"
 preserveAspectRatio="xMidYMid meet">
<metadata>
Created by potrace 1.14, written by Peter Selinger 2001-2017
</metadata>
<g transform="translate(0.000000,1000.000000) scale(0.100000,-0.100000)"
fill="#000000" stroke="none">
<path d="M0 5000 l0 -5000 5000 0 5000 0 0 5000 0 5000 -5000 0 -5000 0 0
-5000z m2048 3284 c125 -26 212 -72 296 -156 127 -129 175 -263 183 -520 l6
-158 -215 0 -215 0 -7 123 c-7 144 -25 205 -72 252 -76 77 -248 73 -321 -6
-36 -39 -55 -99 -60 -184 -13 -211 81 -374 358 -621 404 -361 521 -561 535
-914 18 -415 -141 -678 -461 -766 -33 -9 -118 -18 -191 -21 -309 -13 -513 87
-628 306 -61 116 -78 200 -83 409 l-5 182 214 0 215 0 6 -147 c7 -166 21 -220
69 -270 46 -47 103 -66 185 -61 38 2 85 12 107 23 126 61 153 322 54 532 -41
89 -126 192 -259 313 -173 158 -328 317 -387 395 -79 104 -149 254 -172 366
-39 187 -20 440 43 581 84 190 238 307 452 347 83 15 269 12 353 -5z m4306 -9
c180 -50 308 -155 387 -319 77 -157 74 -118 74 -1151 0 -1033 3 -994 -74
-1151 -80 -165 -207 -269 -392 -320 -92 -26 -357 -26 -449 -1 -182 51 -316
157 -388 308 -81 170 -77 107 -77 1164 0 886 1 944 19 1010 70 262 224 412
486 470 86 19 330 13 414 -10z m-2634 -605 l0 -590 245 0 245 0 0 590 0 590
230 0 230 0 0 -1455 0 -1455 -230 0 -230 0 0 655 0 655 -245 0 -245 0 0 -655
0 -655 -230 0 -230 0 0 1455 0 1455 230 0 230 0 0 -590z m4721 574 c186 -35
337 -141 412 -289 75 -151 91 -265 84 -618 -4 -227 -7 -273 -26 -341 -43 -161
-110 -266 -219 -343 -120 -86 -275 -123 -518 -123 l-134 0 0 -590 0 -590 -230
0 -230 0 0 1455 0 1455 389 0 c312 0 405 -3 472 -16z m-4877 -3369 c180 -50
308 -155 387 -319 77 -157 74 -118 74 -1151 0 -1033 3 -994 -74 -1151 -80
-165 -207 -269 -392 -320 -92 -26 -357 -26 -449 -1 -182 51 -316 157 -388 308
-81 170 -77 107 -77 1164 0 886 1 944 19 1010 70 262 224 412 486 470 86 19
330 13 414 -10z m1651 -5 c228 -72 365 -227 415 -470 16 -77 20 -136 20 -307
l0 -213 -215 0 -215 0 0 163 c0 89 -5 194 -10 232 -20 138 -92 205 -219 205
-128 -1 -199 -61 -221 -188 -8 -48 -11 -309 -8 -932 3 -807 4 -868 21 -905 39
-86 103 -125 207 -125 108 0 175 45 210 140 9 24 14 119 18 303 l4 267 215 0
215 0 -5 -297 c-4 -334 -9 -365 -78 -510 -71 -149 -202 -253 -379 -300 -92
-25 -339 -25 -430 1 -119 33 -189 73 -270 155 -84 85 -126 158 -163 288 l-22
78 0 950 0 950 22 78 c35 122 78 201 150 278 133 141 277 191 528 185 109 -3
156 -9 210 -26z m-3505 -1255 l0 -1245 375 0 375 0 0 -210 0 -210 -605 0 -605
0 0 1455 0 1455 230 0 230 0 0 -1245z m5420 -192 c128 -791 235 -1446 238
-1455 4 -17 -12 -18 -226 -18 -211 0 -231 1 -236 18 -2 9 -21 137 -42 285
l-37 267 -258 0 -257 0 -5 -22 c-3 -13 -22 -141 -43 -286 l-38 -262 -213 0
c-117 0 -213 3 -213 6 0 4 77 477 171 1053 190 1171 299 1841 299 1847 0 2
141 4 313 4 l313 0 234 -1437z m920 192 l0 -1245 375 0 375 0 0 -210 0 -210
-605 0 -605 0 0 1455 0 1455 230 0 230 0 0 -1245z"/>
<path d="M6013 7861 c-52 -24 -98 -87 -112 -152 -7 -33 -11 -334 -11 -904 0
-570 4 -871 11 -904 14 -69 60 -128 116 -153 38 -17 61 -20 124 -16 102 6 145
33 186 115 l28 58 0 900 0 900 -28 58 c-42 84 -84 110 -190 114 -66 3 -90 0
-124 -16z"/>
<path d="M8040 7394 l0 -446 148 4 c134 3 151 5 190 27 32 19 49 39 70 80 27
55 27 58 30 294 4 266 -5 350 -44 410 -42 63 -85 77 -251 77 l-143 0 0 -446z"/>
<path d="M3223 4461 c-52 -24 -98 -87 -112 -152 -7 -33 -11 -334 -11 -904 0
-570 4 -871 11 -904 14 -69 60 -128 116 -153 38 -17 61 -20 124 -16 102 6 145
33 186 115 l28 58 0 900 0 900 -28 58 c-42 84 -84 110 -190 114 -66 3 -90 0
-124 -16z"/>
<path d="M6511 3975 c-29 -209 -74 -532 -100 -717 l-47 -338 204 0 204 0 -6
33 c-3 17 -48 336 -101 707 -52 371 -97 679 -98 685 -2 5 -27 -162 -56 -370z"/>
</g>
</svg>
